<svg width="59" height="32" viewBox="0 0 59 32" fill="none" xmlns="http://www.w3.org/2000/svg">
<g filter="url(#filter0_b_833_94)">
<rect width="59" height="32" rx="8" fill="black" fill-opacity="0.65"/>
<path d="M17.1533 10.34L18.3267 12.6867C18.4867 13.0133 18.9133 13.3267 19.2733 13.3867L21.4 13.74C22.76 13.9667 23.08 14.9533 22.1 15.9267L20.4467 17.58C20.1667 17.86 20.0133 18.4 20.1 18.7867L20.5733 20.8333C20.9467 22.4533 20.0867 23.08 18.6533 22.2333L16.66 21.0533C16.3 20.84 15.7067 20.84 15.34 21.0533L13.3467 22.2333C11.92 23.08 11.0533 22.4467 11.4267 20.8333L11.9 18.7867C11.9867 18.4 11.8333 17.86 11.5533 17.58L9.9 15.9267C8.92667 14.9533 9.24 13.9667 10.6 13.74L12.7267 13.3867C13.08 13.3267 13.5067 13.0133 13.6667 12.6867L14.84 10.34C15.48 9.06668 16.52 9.06668 17.1533 10.34Z" stroke="#FFAD49" stroke-width="1.5" stroke-linecap="round" stroke-linejoin="round"/>
<path d="M36.112 11.568L31.664 22H30.192L34.704 11.712H28.528V10.464H36.112V11.568ZM38.4304 22.096C38.153 22.096 37.9184 22 37.7264 21.808C37.5344 21.616 37.4384 21.3813 37.4384 21.104C37.4384 20.8267 37.5344 20.592 37.7264 20.4C37.9184 20.208 38.153 20.112 38.4304 20.112C38.697 20.112 38.921 20.208 39.1024 20.4C39.2944 20.592 39.3904 20.8267 39.3904 21.104C39.3904 21.3813 39.2944 21.616 39.1024 21.808C38.921 22 38.697 22.096 38.4304 22.096ZM42.9578 18.896C43.0644 19.504 43.3098 19.9733 43.6938 20.304C44.0884 20.6347 44.6164 20.8 45.2778 20.8C46.1631 20.8 46.8138 20.4533 47.2298 19.76C47.6564 19.0667 47.8591 17.8987 47.8378 16.256C47.6138 16.736 47.2404 17.1147 46.7178 17.392C46.1951 17.6587 45.6138 17.792 44.9738 17.792C44.2591 17.792 43.6191 17.648 43.0538 17.36C42.4991 17.0613 42.0618 16.6293 41.7418 16.064C41.4218 15.4987 41.2618 14.816 41.2618 14.016C41.2618 12.8747 41.5924 11.9573 42.2538 11.264C42.9151 10.56 43.8538 10.208 45.0698 10.208C46.5631 10.208 47.6084 10.6933 48.2058 11.664C48.8138 12.6347 49.1178 14.08 49.1178 16C49.1178 17.344 48.9951 18.4533 48.7498 19.328C48.5151 20.2027 48.1098 20.8693 47.5338 21.328C46.9684 21.7867 46.1898 22.016 45.1978 22.016C44.1098 22.016 43.2618 21.7227 42.6538 21.136C42.0458 20.5493 41.6991 19.8027 41.6138 18.896H42.9578ZM45.2138 16.56C45.9284 16.56 46.5151 16.3413 46.9738 15.904C47.4324 15.456 47.6618 14.8533 47.6618 14.096C47.6618 13.296 47.4378 12.6507 46.9898 12.16C46.5418 11.6693 45.9124 11.424 45.1018 11.424C44.3551 11.424 43.7578 11.6587 43.3098 12.128C42.8724 12.5973 42.6538 13.216 42.6538 13.984C42.6538 14.7627 42.8724 15.3867 43.3098 15.856C43.7471 16.3253 44.3818 16.56 45.2138 16.56Z" fill="#FFAD49"/>
</g>
<defs>
<filter id="filter0_b_833_94" x="-8" y="-8" width="75" height="48" filterUnits="userSpaceOnUse" color-interpolation-filters="sRGB">
<feFlood flood-opacity="0" result="BackgroundImageFix"/>
<feGaussianBlur in="BackgroundImageFix" stdDeviation="4"/>
<feComposite in2="SourceAlpha" operator="in" result="effect1_backgroundBlur_833_94"/>
<feBlend mode="normal" in="SourceGraphic" in2="effect1_backgroundBlur_833_94" result="shape"/>
</filter>
</defs>
</svg>
